<?xml version="1.0" encoding="utf-8"?>
<!-- Generator: Adobe Illustrator 23.0.1, SVG Export Plug-In . SVG Version: 6.00 Build 0)  -->
<svg version="1.1" id="Layer_1" xmlns="http://www.w3.org/2000/svg" xmlns:xlink="http://www.w3.org/1999/xlink" x="0px" y="0px"
	 viewBox="0 0 676.89 157.28" style="enable-background:new 0 0 676.89 157.28;" xml:space="preserve">
<style type="text/css">
	.st0{fill:#1D1D1B;}
</style>
<g>
	<g>
		<path class="st0" d="M112.18,142.5l1.82,1.92c-1.59,2.08-3.98,3.15-7.25,3.15c-6,0-9.64-4.32-9.64-10.12
			c0-5.91,4.24-10.11,10.35-10.11c2.93,0,5.31,1.09,6.79,2.64l-1.55,2.08c-0.21,0.26-0.44,0.5-0.92,0.5c-0.99,0-1.45-1.43-4.35-1.43
			c-3.32,0-5.62,2.45-5.62,6.32c0,4.06,2.36,6.34,5.24,6.34c1.68,0,2.66-0.31,3.75-1.25c0.22-0.18,0.48-0.31,0.75-0.31
			C111.76,142.23,111.98,142.29,112.18,142.5"/>
		<path class="st0" d="M121.85,140.03v7.32h-4.59v-19.79h6.44c5.73,0,7.96,2.5,7.96,5.87c0,2.54-1.41,4.66-3.98,5.64
			c0.61,0.31,1.17,0.75,1.56,1.4l4.21,6.89h-4.16c-0.77,0-1.32-0.29-1.65-0.87l-3.29-5.75c-0.28-0.5-0.63-0.71-1.33-0.71H121.85z
			 M121.85,136.86h1.85c2.5,0,3.48-1.36,3.48-3.1c0-1.74-1.1-2.77-3.48-2.77h-1.85V136.86z"/>
		<polygon class="st0" points="149.14,127.56 149.14,131.09 141.02,131.09 141.02,135.71 147.24,135.71 147.24,139.1 141.02,139.1 
			141.02,143.82 149.14,143.82 149.14,147.35 136.4,147.35 136.4,127.56 		"/>
		<path class="st0" d="M171.62,147.35h-3.56c-0.8,0-1.32-0.41-1.52-0.99l-1.17-3.45h-7.53l-1.17,3.45c-0.18,0.5-0.74,0.99-1.5,0.99
			h-3.58l7.66-19.79h4.7L171.62,147.35z M158.91,139.78h5.41l-1.82-5.42c-0.23-0.69-0.57-1.64-0.88-2.73
			c-0.29,1.1-0.61,2.06-0.88,2.76L158.91,139.78z"/>
		<polygon class="st0" points="186.82,127.56 186.82,131.2 181.26,131.2 181.26,147.35 176.66,147.35 176.66,131.2 171.09,131.2 
			171.09,127.56 		"/>
		<polygon class="st0" points="202.51,127.56 202.51,131.09 194.4,131.09 194.4,135.71 200.61,135.71 200.61,139.1 194.4,139.1 
			194.4,143.82 202.51,143.82 202.51,147.35 189.77,147.35 189.77,127.56 		"/>
		<path class="st0" d="M214.19,147.35h-7.69v-19.79h7.69c6.15,0,10.27,4.19,10.27,9.89C224.46,143.16,220.34,147.35,214.19,147.35
			 M214.19,131.09h-3.07v12.73h3.07c3.51,0,5.57-2.42,5.57-6.37C219.76,133.52,217.69,131.09,214.19,131.09"/>
		<path class="st0" d="M234.1,147.35v-19.79h7.28c5.47,0,7.58,2.09,7.58,5.35c0,1.78-0.98,3.33-3.37,4.2
			c2.61,0.64,3.83,2.05,3.83,4.28c0,3.37-2.66,5.96-7.42,5.96H234.1z M238.69,135.89h2.39c2.04,0,3.29-0.5,3.29-2.43
			c0-1.88-0.93-2.46-2.99-2.46h-2.69V135.89z M238.69,138.95v4.93h3.23c2.43,0,2.96-1.35,2.96-2.59c0-1.45-0.68-2.34-2.99-2.34
			H238.69z"/>
		<path class="st0" d="M262.34,139.82v7.52h-4.59v-7.52l-7.17-12.27h4.05c0.8,0,1.24,0.41,1.52,0.99l2.8,5.76
			c0.45,0.92,0.84,1.67,1.13,2.43c0.27-0.77,0.67-1.52,1.1-2.43l2.77-5.76c0.21-0.48,0.75-0.99,1.49-0.99h4.08L262.34,139.82z"/>
		<path class="st0" d="M296.73,147.35h-3.56c-0.81,0-1.32-0.41-1.52-0.99l-1.17-3.45h-7.52l-1.17,3.45
			c-0.18,0.5-0.74,0.99-1.49,0.99h-3.58l7.66-19.79h4.7L296.73,147.35z M284.02,139.78h5.41l-1.82-5.42
			c-0.23-0.69-0.57-1.64-0.88-2.73c-0.29,1.1-0.61,2.06-0.88,2.76L284.02,139.78z"/>
		<path class="st0" d="M304.14,140.03v7.32h-4.59v-19.79h6.44c5.73,0,7.96,2.5,7.96,5.87c0,2.54-1.42,4.66-3.98,5.64
			c0.61,0.31,1.17,0.75,1.56,1.4l4.21,6.89h-4.16c-0.77,0-1.32-0.29-1.66-0.87l-3.29-5.75c-0.29-0.5-0.62-0.71-1.33-0.71H304.14z
			 M304.14,136.86h1.85c2.5,0,3.48-1.36,3.48-3.1c0-1.74-1.1-2.77-3.48-2.77h-1.85V136.86z"/>
		<path class="st0" d="M332.39,142.5l1.82,1.92c-1.59,2.08-3.98,3.15-7.25,3.15c-6,0-9.64-4.32-9.64-10.12
			c0-5.91,4.24-10.11,10.35-10.11c2.93,0,5.31,1.09,6.79,2.64l-1.55,2.08c-0.2,0.26-0.44,0.5-0.92,0.5c-0.99,0-1.45-1.43-4.35-1.43
			c-3.31,0-5.62,2.45-5.62,6.32c0,4.06,2.36,6.34,5.24,6.34c1.69,0,2.66-0.31,3.75-1.25c0.22-0.18,0.48-0.31,0.75-0.31
			C331.96,142.23,332.18,142.29,332.39,142.5"/>
		<polygon class="st0" points="352.4,127.56 352.4,131.2 346.83,131.2 346.83,147.35 342.24,147.35 342.24,131.2 336.67,131.2 
			336.67,127.56 		"/>
		<rect x="355.57" y="127.56" class="st0" width="4.62" height="19.79"/>
		<path class="st0" d="M379.1,142.5l1.82,1.92c-1.59,2.08-3.98,3.15-7.25,3.15c-6,0-9.64-4.32-9.64-10.12
			c0-5.91,4.24-10.11,10.35-10.11c2.93,0,5.31,1.09,6.79,2.64l-1.55,2.08c-0.2,0.26-0.43,0.5-0.92,0.5c-0.99,0-1.45-1.43-4.35-1.43
			c-3.31,0-5.62,2.45-5.62,6.32c0,4.06,2.36,6.34,5.24,6.34c1.69,0,2.66-0.31,3.75-1.25c0.22-0.18,0.47-0.31,0.75-0.31
			C378.68,142.23,378.9,142.29,379.1,142.5"/>
		<polygon class="st0" points="403.2,127.56 403.2,131.09 395.08,131.09 395.08,135.71 401.29,135.71 401.29,139.1 395.08,139.1 
			395.08,143.82 403.2,143.82 403.2,147.35 390.45,147.35 390.45,127.56 		"/>
		<path class="st0" d="M405.66,127.56h3.69c0.8,0,1.3,0.39,1.52,0.99l3.83,10.6c0.34,0.92,0.7,2.02,1.02,3.22
			c0.26-1.2,0.61-2.3,0.94-3.22l3.8-10.6c0.18-0.5,0.73-0.99,1.49-0.99h3.72l-7.93,19.79h-4.15L405.66,127.56z"/>
		<path class="st0" d="M436.89,147.57c-6.17,0-10.29-4.4-10.29-10.12c0-5.72,4.13-10.11,10.29-10.11c6.15,0,10.27,4.41,10.27,10.11
			C447.16,143.16,443.04,147.57,436.89,147.57 M436.89,131.13c-3.53,0-5.6,2.39-5.6,6.32c0,3.96,2.07,6.32,5.6,6.32
			c3.51,0,5.57-2.35,5.57-6.32C442.46,133.52,440.4,131.13,436.89,131.13"/>
		<polygon class="st0" points="455.44,143.68 462.78,143.68 462.78,147.35 450.85,147.35 450.85,127.56 455.44,127.56 		"/>
		<path class="st0" d="M477.7,139.28v-11.72h4.59v11.72c0,4.85-3.25,8.28-8.5,8.28c-5.28,0-8.5-3.44-8.5-8.28v-11.72h4.59v11.71
			c0,2.77,1.45,4.46,3.91,4.46C476.25,143.72,477.7,142.05,477.7,139.28"/>
		<polygon class="st0" points="500.84,127.56 500.84,131.2 495.27,131.2 495.27,147.35 490.68,147.35 490.68,131.2 485.11,131.2 
			485.11,127.56 		"/>
		<rect x="504.01" y="127.56" class="st0" width="4.62" height="19.79"/>
		<path class="st0" d="M522.82,147.57c-6.17,0-10.29-4.4-10.29-10.12c0-5.72,4.13-10.11,10.29-10.11c6.15,0,10.27,4.41,10.27,10.11
			C533.09,143.16,528.97,147.57,522.82,147.57 M522.82,131.13c-3.53,0-5.6,2.39-5.6,6.32c0,3.96,2.07,6.32,5.6,6.32
			c3.51,0,5.57-2.35,5.57-6.32C528.39,133.52,526.32,131.13,522.82,131.13"/>
		<path class="st0" d="M540.72,128.26l9.4,11.89c-0.07-0.76-0.11-1.48-0.11-2.12v-10.47h4.05v19.79h-2.39
			c-0.71,0-1.15-0.18-1.6-0.76l-9.33-11.79c0.05,0.69,0.09,1.36,0.09,1.94v10.61h-4.05v-19.79h2.42
			C539.98,127.56,540.21,127.65,540.72,128.26"/>
		<path class="st0" d="M473.38,49.5c-0.04-0.03-0.11-0.03-0.15-0.06c-2.07-1.98-5.4-3.15-9.23-3.15c-4.08,0-6.61,0.24-9.88,1.68
			c-2.36,1.05-6.99,4.65-6.84,0.41c0.02-0.52-0.46-1.16-0.69-1.34c-0.67-0.54-2.08-0.97-3.57-0.3c-1.37,0.62-2.01,1.49-4.32,2.68
			c-2.57,1.33-5.93,3.14-9.11,3.71c-2.5,0.45-3.2,2.34-3.48,3.37c-0.28,1.02,0.24,2.36,1.65,2.88c1.4,0.52,3.33,1.03,3.57,2.23
			c0.28,1.4,0.15,2.08-1.04,7.14c-1.05,4.48-2.4,10.21-3.28,13.69c-0.89,3.48-0.81,4.32-3.15,5.06c-3.16,1-3.87,2.49-4.05,3.37
			c-0.17,0.88-0.04,1.68,0.35,2.25c0.39,0.57,0.97,1.01,2.31,1.01h18.23c1.04,0,2.31-0.15,2.98-0.59c0.67-0.45,1.4-0.92,1.63-2.22
			c0.3-1.65-0.33-3.45-2.58-3.93c-2.25-0.47-2.77-1.22-3.15-2.26c-0.37-1.04-0.23-2,0.37-4.59c1.99-8.5,3.11-13.21,4.74-20.22
			c0.52-1.17,1.41-2.43,3.24-4.16c3.18-2.99,11.03-4.63,13.63-0.35c1.44,3.52-0.3,8.09-1.45,12.95c-1.05,4.48-2.4,10.21-3.28,13.69
			c-0.88,3.48-0.81,4.32-3.15,5.06c-3.16,1-3.87,2.49-4.04,3.37c-0.18,0.88-0.03,1.68,0.35,2.25c0.39,0.57,0.97,1.01,2.31,1.01
			h18.23c1.04,0,2.3-0.15,2.97-0.59c0.67-0.45,1.4-0.92,1.63-2.22c0.3-1.65-0.33-3.45-2.58-3.93c-2.25-0.47-2.77-1.22-3.14-2.26
			c-0.37-1.04-0.24-2,0.37-4.59c2.85-12.15,2.05-8.65,5.38-23.16C475.42,56.29,476.36,52.18,473.38,49.5"/>
		<path class="st0" d="M310.96,46.45c-2.71-1.13-7.19,1.08-8.11,1.49c-2.36,1.05-6.77,4.69-6.62,0.45c0.02-0.52-0.46-1.16-0.69-1.34
			c-0.67-0.53-2.08-0.97-3.57-0.3c-1.37,0.62-2.01,1.49-4.32,2.68c-2.57,1.33-5.93,3.14-9.11,3.71c-2.5,0.45-3.2,2.35-3.48,3.37
			c-0.28,1.02,0.24,2.36,1.65,2.89c1.4,0.51,3.33,1.03,3.57,2.23c0.28,1.4,0.15,2.08-1.04,7.14c-1.05,4.48-2.4,10.21-3.28,13.69
			c-0.88,3.48-0.81,4.32-3.14,5.06c-3.16,1-3.87,2.49-4.05,3.37c-0.17,0.88-0.04,1.68,0.35,2.25c0.39,0.57,0.97,1.01,2.31,1.01
			h18.23c1.04,0,2.31-0.15,2.98-0.59c0.67-0.45,1.4-0.92,1.63-2.22c0.3-1.65-0.33-3.46-2.58-3.93c-2.25-0.48-2.77-1.22-3.15-2.26
			c-0.37-1.04-0.23-1.99,0.37-4.59c1.99-8.5,4.39-19.06,4.74-20.22c0.34-1.16,0.22-1.89,2.05-3.61c2.75-2.53,4.94-1,8.19,0.3
			c4.83,1.94,8.41-1.64,9.23-4.09C313.78,50.93,313.64,47.57,310.96,46.45"/>
		<path class="st0" d="M507.21,38.2c0-1.47-0.49-2.81-1.34-3.9c-1.22-1.71-3.17-2.81-5.37-2.81c-3.78,0-6.71,3.05-6.71,6.71
			c0,3.78,2.93,6.71,6.71,6.71c2.2,0,4.15-1.1,5.37-2.69C506.72,41.01,507.21,39.66,507.21,38.2"/>
		<path class="st0" d="M504.79,47.05c-0.67-0.53-2.08-0.97-3.57-0.3c-1.37,0.62-2.01,1.49-4.31,2.68c-2.58,1.33-5.93,3.14-9.11,3.72
			c-2.5,0.45-3.2,2.34-3.48,3.37c-0.28,1.02,0.24,2.36,1.65,2.88c1.39,0.51,3.33,1.03,3.57,2.23c0.28,1.4,0.15,2.08-1.04,7.14
			c-1.05,4.48-2.4,10.21-3.28,13.69c-0.88,3.48-0.81,4.32-3.15,5.06c-3.16,1-3.87,2.49-4.04,3.37c-0.17,0.88-0.04,1.68,0.35,2.25
			c0.39,0.57,0.97,1.01,2.31,1.01h18.23c1.04,0,2.3-0.15,2.97-0.59c0.67-0.45,1.4-0.92,1.64-2.22c0.3-1.65-0.33-3.46-2.58-3.93
			c-2.25-0.48-2.77-1.22-3.14-2.26s-0.24-1.99,0.37-4.59c2.85-12.15,3.89-16.47,7.22-30.97C505.64,48.47,505.46,47.58,504.79,47.05"
			/>
		<path class="st0" d="M341.83,47.36c-0.65,0-5.71,0.02-7.02,0c-1.31-0.02-1.76-0.91-1.24-2.7c0.52-1.79,2.36-8.02,2.75-9.53
			c0.44-1.71,0.15-3.28-1.64-3.57c-1.19-0.2-3.42-0.3-5.06,3.05c-1.72,3.53-4.69,11.01-8.18,12.42c-1.73,0.7-3.13,0.35-4.39,0.88
			c-1.27,0.53-1.8,1.02-2.45,2.39c-0.66,1.37-0.52,2.38,0.22,3.05c0.68,0.61,1.49,0.74,2.83,0.74c0.92,0,1.27,0.67,1.04,1.49
			c-2.6,9.52-5.27,19.39-6.47,24.03c-1.2,4.64-0.82,7.22,0.3,9.52c0.46,0.96,1.33,2.03,2.83,2.98c1.5,0.95,2.72,1.5,5.95,1.93
			c4.24,0.57,9.71,0.3,11.46-3.05c0.92-1.76,0.08-3.94-3.67-3.66c-3.76,0.28-6.85-0.68-5.5-5.73c0,0,5.71-22.43,6.18-24.26
			c0.47-1.83,1.69-3,3.74-3.41c1.68-0.34,4.19-0.45,5.43-0.45c1.57,0,2.72-0.34,3.35-1.04c0.6-0.67,0.76-1.08,1.12-2.23
			C343.92,48.52,342.95,47.36,341.83,47.36"/>
		<path class="st0" d="M371.74,47.36c-0.65,0-5.71,0.02-7.02,0c-1.31-0.02-1.76-0.91-1.24-2.7c0.52-1.79,2.36-8.02,2.75-9.53
			c0.44-1.71,0.15-3.28-1.64-3.57c-1.19-0.2-3.42-0.3-5.06,3.05c-1.72,3.53-4.69,11.01-8.18,12.42c-1.73,0.7-3.13,0.35-4.39,0.88
			c-1.26,0.53-1.79,1.02-2.45,2.39c-0.66,1.37-0.52,2.38,0.22,3.05c0.68,0.61,1.49,0.74,2.82,0.74c0.92,0,1.27,0.67,1.04,1.49
			c-2.6,9.52-5.27,19.39-6.47,24.03c-1.2,4.64-0.82,7.22,0.3,9.52c0.46,0.96,1.33,2.03,2.82,2.98c1.5,0.95,2.72,1.5,5.95,1.93
			c4.24,0.57,9.71,0.3,11.46-3.05c0.92-1.76,0.07-3.94-3.68-3.66c-3.76,0.28-6.85-0.68-5.5-5.73c0,0,5.71-22.43,6.18-24.26
			c0.47-1.83,1.69-3,3.74-3.41c1.68-0.34,4.19-0.45,5.43-0.45c1.57,0,2.72-0.34,3.35-1.04c0.6-0.67,0.76-1.08,1.12-2.23
			C373.82,48.52,372.86,47.36,371.74,47.36"/>
		<path class="st0" d="M394.6,38.2c0-1.47-0.49-2.81-1.34-3.9c-1.22-1.71-3.17-2.81-5.37-2.81c-3.78,0-6.71,3.05-6.71,6.71
			c0,3.78,2.93,6.71,6.71,6.71c2.2,0,4.15-1.1,5.37-2.69C394.11,41.01,394.6,39.66,394.6,38.2"/>
		<path class="st0" d="M392.19,47.05c-0.67-0.53-2.08-0.97-3.57-0.3c-1.37,0.62-2.01,1.49-4.31,2.68c-2.58,1.33-5.93,3.14-9.11,3.72
			c-2.5,0.45-3.2,2.34-3.48,3.37c-0.28,1.02,0.24,2.36,1.65,2.88c1.39,0.51,3.33,1.03,3.57,2.23c0.28,1.4,0.15,2.08-1.04,7.14
			c-1.05,4.48-2.39,10.21-3.28,13.69c-0.88,3.48-0.81,4.32-3.15,5.06c-3.16,1-3.87,2.49-4.04,3.37c-0.17,0.88-0.04,1.68,0.35,2.25
			c0.39,0.57,0.97,1.01,2.31,1.01h18.23c1.04,0,2.3-0.15,2.98-0.59c0.67-0.45,1.4-0.92,1.63-2.22c0.3-1.65-0.33-3.46-2.58-3.93
			c-2.25-0.48-2.77-1.22-3.14-2.26s-0.24-1.99,0.37-4.59c2.85-12.15,3.89-16.47,7.22-30.97C393.03,48.47,392.86,47.58,392.19,47.05"
			/>
		<path class="st0" d="M421.91,38.2c0-1.47-0.49-2.81-1.34-3.9c-1.22-1.71-3.17-2.81-5.37-2.81c-3.78,0-6.71,3.05-6.71,6.71
			c0,3.78,2.93,6.71,6.71,6.71c2.2,0,4.15-1.1,5.37-2.69C421.42,41.01,421.91,39.66,421.91,38.2"/>
		<path class="st0" d="M419.49,47.05c-0.67-0.53-2.08-0.97-3.57-0.3c-1.37,0.62-2.01,1.49-4.31,2.68c-2.58,1.33-5.93,3.14-9.11,3.72
			c-2.5,0.45-3.2,2.34-3.48,3.37c-0.28,1.02,0.24,2.36,1.65,2.88c1.39,0.51,3.33,1.03,3.57,2.23c0.28,1.4,0.15,2.08-1.04,7.14
			c-1.05,4.48-2.39,10.21-3.28,13.69c-0.88,3.48-0.81,4.32-3.15,5.06c-3.16,1-3.87,2.49-4.04,3.37c-0.17,0.88-0.04,1.68,0.35,2.25
			c0.39,0.57,0.97,1.01,2.31,1.01h18.23c1.04,0,2.3-0.15,2.98-0.59c0.67-0.45,1.4-0.92,1.63-2.22c0.3-1.65-0.33-3.46-2.58-3.93
			c-2.25-0.48-2.77-1.22-3.14-2.26c-0.37-1.04-0.24-1.99,0.37-4.59c2.85-12.15,3.89-16.47,7.22-30.97
			C420.34,48.47,420.16,47.58,419.49,47.05"/>
		<path class="st0" d="M253.82,75.27c-0.6,2.43-1.07,4.95-2.25,6.96c-1.18,2.01-3.27,3.28-6.63,3.71c-1.24,0.16-1.03,0.11-2.14,0.11
			c-4.03,0-7.75-1.88-6.74-6.4c0.35-1.59,2.04-4.71,4.5-6.04c2.25-1.23,2.87-1.48,4.38-1.93c1.5-0.45,3.64-1,6.4-1.23
			C254.12,70.21,254.42,72.84,253.82,75.27 M270.11,55.28c-1.34-5.63-8.09-9.1-15.61-9.1c-3.03,0-5.66,0.13-9.55,1.13
			c-5.63,1.45-10.68,4.51-12.13,9.55c-0.95,3.29,1.46,5.51,4.72,5.51c3.14,0,4.87-1.56,7.41-4.27c2.54-2.7,4.94-5.84,8.54-5.84
			s5.17,2.39,3.93,6.74c-1.45,5.11-8.57,5.79-11.13,6.29c-3.41,0.67-7.62,1.66-9.73,2.68c-8,3.86-14.3,9.28-14.3,17.18
			c0,1.69,0.68,3.3,1.87,4.99c1.44,2.03,4.65,3.64,8.69,4.02c8.13,0.75,13.34-0.52,18.62-2.6c4.8-1.89,2.16,2.6,7.22,2.6
			c2.61,0,4.13-0.11,5.28-0.37c3.46-0.79,4.91-6.62,2.23-7.96c-1.62-0.81-2.45-1.42-1.78-4.02c0.67-2.6,4.74-18.17,5.21-19.93
			C270.04,60.18,270.56,57.15,270.11,55.28"/>
		<path class="st0" d="M149.06,32.59c0,0-9.42,38.64-11,44.48c-1.58,5.84-11.48,8.87-15.35,8.87H59.85c-14.73,0-21.43,9.1-21.43,9.1
			s0.37-1.97,1.19-4.91c0.46-1.65,6.55-26.19,9.53-37.72c1.77-6.87,5.87-14.81,8.11-17.34c7.37-8.33,18.38-13.15,33.56-13.15h52.68
			C149.43,21.91,150.51,26.5,149.06,32.59 M662.93,13.71h-444.6c-6.92,0-11.31,5.51-13.73,9.66L183.37,60.1
			c-0.83,1.23-1.5,0.86-1.57,0l-1.6-32.8c-0.12-7.05-0.34-9.8-3.1-12.18c-1.13-0.97-2.83-1.41-4.46-1.41H94.37
			c-13.24,0-35.64,1.12-50.89,17.52c-3.62,3.89-10.42,13.84-16.37,27.86c-9.07,21.36-14.77,34.29-15.1,35.04
			c-1.64,3.72-1.75,7.74,2.6,9.82c5.46,2.62,12.76,5.23,18.6,6.4c3.72,0.74,5.95,0.48,9.38-4.02c0.63-0.83,1.17-1.65,1.79-2.6
			c4.32-6.69,10.12-9.6,16.82-9.6h57.66c1.91,0,3.93-0.11,5.84-0.34c12.81-1.46,25.55-6.75,28.31-18.31
			c2.76-11.56,9.97-41.25,9.97-41.25c0.3-1.19,1.93-1.04,1.99-0.11c0,0,2.85,45.94,3.15,50.93c0.3,4.98,0.27,8.62,2.8,9.07
			c1.67,0.3,2.93-0.47,4.04-2.23c2.16-3.42,33.18-57.96,33.18-57.96c0.37-0.89,1.86-0.56,1.64,0.45c0,0-11.16,45.01-11.46,46.06
			c-0.3,1.04-0.45,1.46-0.79,2.02c-2.7,4.61-8.16,2.61-10.97,8.92c-0.63,1.43,0.45,2.75,1.93,2.75h29.8c1.35,0,2.16-0.62,2.36-1.68
			c0.2-1.07,0.07-2.22-0.32-3.23c-0.39-1.01-1.12-1.71-1.93-2.39c-2.91-2.44-5.24-4.06-4.3-7.75c0.94-3.7,12.06-48.19,12.06-48.19
			c1.46-5.62,5.95-8.98,12.02-8.98h403.04c-5.88,12.85-19.46,32.35-41.37,45.44c-15.78,9.43-32.4,13.69-49.25,15.92
			c-11.85,1.57-29.02,0.74-42.59,10.86h35.05c10.79,0,22.76-1.06,32.76-3.42c38.31-9.1,66.44-33.85,83.61-68.92
			C660.68,19.22,661.92,16.52,662.93,13.71"/>
	</g>
</g>
</svg>
