<svg version="1.1" id="Layer_1" xmlns="http://www.w3.org/2000/svg" x="0px" y="0px" viewBox="0 0 612 74" style="enable-background:new 0 0 612 74;" xmlns:xlink="http://www.w3.org/1999/xlink" xml:space="preserve" width="612"  height="74" >
<style type="text/css">
	.st0{fill:#FDD208;}
</style>
<g>
	<path class="st0" d="M317.8,7.1h-33.5h-0.4l-70,64.6h33.8l9.6-8.8h46.8l3.1,8.8H341L318.1,7.1H317.8z M276.4,45.2l16.1-14.8
		l5.3,14.8H276.4z" fill="#FDD208"></path>
	<polygon class="st0" points="466.3,7.1 433.8,50.4 429.1,7.1 389.6,7.1 341,71.7 341,71.7 374.8,71.7 400.3,37.9 404,71.7 
		451.5,71.7 500.3,7.1 	" fill="#FDD208"></polygon>
	<path class="st0" d="M144.7,31.9c10.6-20.1-7.7-24.7-16.8-24.7H49.5L0.9,71.7h33.8l15.6-20.7h55.6C108.1,51.1,134.1,52,144.7,31.9z
		 M107.2,33.4H63.6l6.5-8.5c0,0,41.6,0,42.5,0C120.5,25.1,116.6,33.4,107.2,33.4z" fill="#FDD208"></path>
	<path class="st0" d="M545.3,4.4c-31.9,0-59.7,15.6-62.1,34.8C480.8,58.4,504.7,74,536.6,74c31.9,0,59.7-15.6,62.1-34.8
		C601.1,20,577.2,4.4,545.3,4.4z M569.4,39.2c-1.2,9.4-14.9,17.1-30.6,17.1c-15.7,0-27.5-7.7-26.3-17.1c1.2-9.5,14.9-17.1,30.6-17.1
		C558.8,22.1,570.6,29.8,569.4,39.2z" fill="#FDD208"></path>
	<polygon class="st0" points="164.7,54.2 200.2,7 166.3,7 117.7,71.6 117.9,71.6 117.7,71.8 206.8,71.8 225.6,54.2 	" fill="#FDD208"></polygon>
	<path class="st0" d="M607.3,9.6c0.1-1.5-0.7-2.2-2.5-2.2h-3.1l-0.4,8.1h1l0.2-3.6h1.7l2.1,3.6h1.2l-2.2-3.6
		C606.3,11.7,607.3,11,607.3,9.6z M603.8,11h-1.3l0.1-2.8h1.8c1,0,1.9,0.3,1.9,1.4C606.3,11,605.1,11,603.8,11z" fill="#FDD208"></path>
	<path class="st0" d="M604.4,4.4c-4,0-7.2,3.1-7.4,7c-0.2,3.9,2.7,7,6.7,7c3.9,0,7.2-3.1,7.4-7C611.3,7.5,608.3,4.4,604.4,4.4z
		 M603.7,17.4c-3.4,0-5.8-2.6-5.6-6c0.2-3.3,2.8-6,6.2-6c3.4,0,5.8,2.6,5.6,6C609.8,14.8,607.1,17.4,603.7,17.4z" fill="#FDD208"></path>
</g>
</svg>